<?xml version="1.0" standalone="no"?>
<!DOCTYPE svg PUBLIC "-//W3C//DTD SVG 20010904//EN"
 "http://www.w3.org/TR/2001/REC-SVG-20010904/DTD/svg10.dtd">
<svg version="1.0" xmlns="http://www.w3.org/2000/svg"
 width="500.000000pt" height="500.000000pt" viewBox="0 0 500.000000 500.000000"
 preserveAspectRatio="xMidYMid meet">
<metadata>
Created by potrace 1.11, written by Peter Selinger 2001-2013
</metadata>
<g transform="translate(0.000000,500.000000) scale(0.100000,-0.100000)"
fill="#000000" stroke="none">
<path d="M2241 3628 c-96 -260 -180 -486 -186 -503 -7 -16 -59 -156 -115 -310
-56 -154 -114 -314 -130 -355 -15 -41 -110 -298 -209 -570 -100 -272 -186
-506 -192 -520 -6 -14 -30 -79 -54 -145 -99 -277 -90 -267 -253 -269 l-106 -1
1 -35 c0 -19 1 -39 2 -45 1 -6 132 -9 373 -9 205 1 379 2 386 3 9 1 12 14 10
44 l-3 42 -162 0 c-90 0 -163 3 -163 8 0 7 67 197 110 312 10 28 30 84 45 125
15 41 30 84 35 95 9 22 67 179 127 347 l38 108 566 0 566 0 178 -490 c98 -270
175 -493 171 -497 -3 -3 -77 -7 -163 -7 l-158 -1 0 -45 0 -44 515 -1 c283 0
520 1 525 2 8 3 12 50 6 83 -1 3 -46 6 -100 6 -106 1 -149 12 -169 45 -11 18
-64 157 -241 639 -120 324 -190 516 -291 790 -62 168 -141 384 -177 480 -36
96 -92 249 -125 340 -87 239 -207 564 -270 735 -17 44 -32 88 -35 98 -5 14
-18 17 -92 17 l-87 0 -173 -472z m173 -258 c19 -52 76 -210 126 -350 50 -140
96 -266 102 -280 5 -14 43 -117 83 -230 40 -113 90 -249 109 -303 20 -54 36
-102 36 -107 0 -6 -193 -10 -505 -10 -397 0 -505 3 -505 13 0 11 69 211 90
262 9 22 32 84 177 480 52 143 108 294 123 335 15 41 47 128 70 193 27 73 46
113 51 105 4 -8 23 -56 43 -108z"/>
</g>
</svg>
